<svg width="305" height="392" viewBox="0 0 305 392" fill="none" xmlns="http://www.w3.org/2000/svg">
<rect x="0.160004" width="304.64" height="392" rx="20" fill="#AA3030" fill-opacity="0.7"/>
<g clip-path="url(#clip0_10_144)">
<path fill-rule="evenodd" clip-rule="evenodd" d="M315.439 385.358C295.494 400.598 270.441 408.235 245.042 406.816C219.644 405.397 195.671 395.023 177.681 377.665C159.692 360.306 148.94 337.175 147.47 312.668C146 288.16 153.914 263.986 169.708 244.741L315.439 385.358ZM332.372 369.034L186.641 228.386C206.586 213.147 231.639 205.51 257.038 206.929C282.436 208.347 306.409 218.722 324.399 236.08C342.388 253.438 353.14 276.57 354.61 301.077C356.08 325.584 348.166 349.759 332.372 369.004V369.034ZM378.72 306.88C378.72 339.555 365.268 370.891 341.323 393.996C317.379 417.1 284.903 430.08 251.04 430.08C217.177 430.08 184.701 417.1 160.757 393.996C136.812 370.891 123.36 339.555 123.36 306.88C123.36 274.205 136.812 242.869 160.757 219.764C184.701 196.66 217.177 183.68 251.04 183.68C284.903 183.68 317.379 196.66 341.323 219.764C365.268 242.869 378.72 274.205 378.72 306.88Z" fill="white" fill-opacity="0.5"/>
</g>
<defs>
<clipPath id="clip0_10_144">
<rect width="181.44" height="208.32" fill="white" transform="translate(123.36 183.68)"/>
</clipPath>
</defs>
</svg>
