<svg width="54" height="54" viewBox="0 0 54 54" fill="none" xmlns="http://www.w3.org/2000/svg">
<path d="M13.5896 39.6562C13.6951 39.6562 13.8006 39.6457 13.9061 39.6299L22.776 38.0742C22.8814 38.0531 22.9816 38.0057 23.0555 37.9266L45.4096 15.5725C45.4585 15.5237 45.4972 15.4657 45.5237 15.4019C45.5502 15.3381 45.5638 15.2697 45.5638 15.2007C45.5638 15.1316 45.5502 15.0632 45.5237 14.9994C45.4972 14.9356 45.4585 14.8777 45.4096 14.8289L36.6451 6.05918C36.5449 5.95898 36.4131 5.90625 36.2707 5.90625C36.1283 5.90625 35.9965 5.95898 35.8963 6.05918L13.5422 28.4133C13.4631 28.4924 13.4156 28.5873 13.3945 28.6928L11.8389 37.5627C11.7876 37.8452 11.8059 38.1359 11.8923 38.4098C11.9786 38.6836 12.1305 38.9322 12.3346 39.1342C12.6826 39.4717 13.1203 39.6562 13.5896 39.6562ZM17.1439 30.4594L36.2707 11.3379L40.1361 15.2033L21.0094 34.3248L16.3213 35.1527L17.1439 30.4594ZM46.4062 44.0859H7.59375C6.66035 44.0859 5.90625 44.84 5.90625 45.7734V47.6719C5.90625 47.9039 6.09609 48.0938 6.32812 48.0938H47.6719C47.9039 48.0938 48.0938 47.9039 48.0938 47.6719V45.7734C48.0938 44.84 47.3396 44.0859 46.4062 44.0859Z" fill="#5F4A00"/>
</svg>
