<svg width="305" height="392" viewBox="0 0 305 392" fill="none" xmlns="http://www.w3.org/2000/svg">
<rect width="304.64" height="392" rx="20" fill="#DCCD44" fill-opacity="0.51"/>
<g clip-path="url(#clip0_10_145)">
<path d="M152.32 216.16C152.32 209.328 155.191 202.776 160.302 197.945C165.413 193.114 172.345 190.4 179.573 190.4H288.587C292.2 190.401 295.666 191.758 298.221 194.174L366.354 258.574C368.91 260.989 370.346 264.264 370.347 267.68V422.24C370.347 429.072 367.475 435.624 362.364 440.455C357.253 445.286 350.321 448 343.093 448H179.573C172.345 448 165.413 445.286 160.302 440.455C155.191 435.624 152.32 429.072 152.32 422.24V216.16ZM337.452 267.68L288.587 221.492V267.68H337.452ZM261.333 216.16H179.573V422.24H343.093V293.44H274.96C271.346 293.44 267.88 292.083 265.324 289.667C262.769 287.252 261.333 283.976 261.333 280.56V216.16ZM206.827 332.08C206.827 328.664 208.262 325.388 210.818 322.972C213.373 320.557 216.839 319.2 220.453 319.2H302.213C305.827 319.2 309.293 320.557 311.849 322.972C314.404 325.388 315.84 328.664 315.84 332.08C315.84 335.496 314.404 338.772 311.849 341.187C309.293 343.603 305.827 344.96 302.213 344.96H220.453C216.839 344.96 213.373 343.603 210.818 341.187C208.262 338.772 206.827 335.496 206.827 332.08ZM206.827 383.6C206.827 380.184 208.262 376.908 210.818 374.492C213.373 372.077 216.839 370.72 220.453 370.72H302.213C305.827 370.72 309.293 372.077 311.849 374.492C314.404 376.908 315.84 380.184 315.84 383.6C315.84 387.016 314.404 390.292 311.849 392.707C309.293 395.123 305.827 396.48 302.213 396.48H220.453C216.839 396.48 213.373 395.123 210.818 392.707C208.262 390.292 206.827 387.016 206.827 383.6Z" fill="white" fill-opacity="0.5"/>
</g>
<defs>
<clipPath id="clip0_10_145">
<rect width="159.04" height="210.56" fill="white" transform="translate(145.6 181.44)"/>
</clipPath>
</defs>
</svg>
