<svg width="305" height="392" viewBox="0 0 305 392" fill="none" xmlns="http://www.w3.org/2000/svg">
<rect width="304.64" height="392" rx="20" fill="#40EA15" fill-opacity="0.38"/>
<g clip-path="url(#clip0_10_143)">
<path fill-rule="evenodd" clip-rule="evenodd" d="M342.65 371.84C338.918 371.84 335.34 373.256 332.701 375.776C330.062 378.297 328.58 381.715 328.58 385.28C328.58 388.845 330.062 392.263 332.701 394.784C335.34 397.304 338.918 398.72 342.65 398.72C346.382 398.72 349.96 397.304 352.599 394.784C355.238 392.263 356.72 388.845 356.72 385.28C356.72 381.715 355.238 378.297 352.599 375.776C349.96 373.256 346.382 371.84 342.65 371.84ZM328.58 347.254C319.187 350.424 311.27 356.665 306.228 364.872C301.187 373.08 299.345 382.726 301.029 392.105C302.713 401.484 307.814 409.993 315.43 416.127C323.046 422.26 332.688 425.625 342.65 425.625C352.612 425.625 362.254 422.26 369.87 416.127C377.486 409.993 382.587 401.484 384.271 392.105C385.955 382.726 384.113 373.08 379.072 364.872C374.03 356.665 366.113 350.424 356.72 347.254V340.48C356.72 326.222 350.791 312.548 340.236 302.466C329.681 292.384 315.366 286.72 300.44 286.72H258.23V253.066C267.618 249.896 275.53 243.657 280.568 235.453C285.606 227.249 287.446 217.608 285.762 208.234C284.078 198.86 278.979 190.356 271.367 184.225C263.754 178.095 254.117 174.732 244.16 174.732C234.203 174.732 224.566 178.095 216.953 184.225C209.341 190.356 204.242 198.86 202.558 208.234C200.874 217.608 202.714 227.249 207.752 235.453C212.79 243.657 220.702 249.896 230.09 253.066V286.72H187.88C172.954 286.72 158.639 292.384 148.084 302.466C137.529 312.548 131.6 326.222 131.6 340.48V347.254C122.207 350.424 114.29 356.665 109.248 364.872C104.207 373.08 102.365 382.726 104.049 392.105C105.733 401.484 110.834 409.993 118.45 416.127C126.066 422.26 135.708 425.625 145.67 425.625C155.632 425.625 165.274 422.26 172.89 416.127C180.506 409.993 185.607 401.484 187.291 392.105C188.975 382.726 187.133 373.08 182.092 364.872C177.05 356.665 169.133 350.424 159.74 347.254V340.48C159.74 333.351 162.705 326.514 167.982 321.473C173.259 316.432 180.417 313.6 187.88 313.6H230.09V347.254C220.697 350.424 212.78 356.665 207.738 364.872C202.697 373.08 200.855 382.726 202.539 392.105C204.223 401.484 209.324 409.993 216.94 416.127C224.556 422.26 234.198 425.625 244.16 425.625C254.122 425.625 263.764 422.26 271.38 416.127C278.996 409.993 284.097 401.484 285.781 392.105C287.465 382.726 285.623 373.08 280.582 364.872C275.54 356.665 267.623 350.424 258.23 347.254V313.6H300.44C307.903 313.6 315.061 316.432 320.338 321.473C325.615 326.514 328.58 333.351 328.58 340.48V347.254ZM145.67 371.84C141.938 371.84 138.36 373.256 135.721 375.776C133.082 378.297 131.6 381.715 131.6 385.28C131.6 388.845 133.082 392.263 135.721 394.784C138.36 397.304 141.938 398.72 145.67 398.72C149.402 398.72 152.98 397.304 155.619 394.784C158.258 392.263 159.74 388.845 159.74 385.28C159.74 381.715 158.258 378.297 155.619 375.776C152.98 373.256 149.402 371.84 145.67 371.84ZM230.09 385.28C230.09 381.715 231.572 378.297 234.211 375.776C236.85 373.256 240.428 371.84 244.16 371.84C247.892 371.84 251.47 373.256 254.109 375.776C256.748 378.297 258.23 381.715 258.23 385.28C258.23 388.845 256.748 392.263 254.109 394.784C251.47 397.304 247.892 398.72 244.16 398.72C240.428 398.72 236.85 397.304 234.211 394.784C231.572 392.263 230.09 388.845 230.09 385.28ZM244.16 201.6C240.428 201.6 236.85 203.016 234.211 205.536C231.572 208.057 230.09 211.475 230.09 215.04C230.09 218.605 231.572 222.023 234.211 224.544C236.85 227.064 240.428 228.48 244.16 228.48C247.892 228.48 251.47 227.064 254.109 224.544C256.748 222.023 258.23 218.605 258.23 215.04C258.23 211.475 256.748 208.057 254.109 205.536C251.47 203.016 247.892 201.6 244.16 201.6Z" fill="white" fill-opacity="0.5"/>
</g>
<defs>
<clipPath id="clip0_10_143">
<rect width="210.56" height="235.2" fill="white" transform="translate(94.08 156.8)"/>
</clipPath>
</defs>
</svg>
